<svg version="1.1" xmlns="http://www.w3.org/2000/svg" xmlns:xlink="http://www.w3.org/1999/xlink" width="1560" height="804"><defs/><g><path fill="none" stroke="#02063B" paint-order="fill stroke markers" d=" M 20 415.2867067924335 L 21 415.9460297608596 L 22 416.6046204267896 L 23 417.2624442077942 L 24 417.91946656171297 L 25 418.5756529884683 L 26 419.23096903187684 L 27 419.8853802814589 L 28 420.5388523742451 L 29 421.1913509965813 L 30 421.8428418859297 L 31 422.49329083266855 L 32 423.1426636818881 L 33 423.7909263351842 L 34 424.438044752449 L 35 425.0839849536579 L 36 425.7287130206543 L 37 426.3721950989305 L 38 427.01439739940525 L 39 427.6552862001982 L 40 428.2948278484004 L 41 428.9329887618417 L 42 429.56973543085394 L 43 430.20503442003053 L 44 430.8388523699821 L 45 431.4711559990885 L 46 432.101912105246 L 47 432.731087567611 L 48 433.35864934833904 L 49 433.9845644943198 L 50 434.6088001389071 L 51 435.2313235036452 L 52 435.8521018999897 L 53 436.47110273102385 L 54 437.0882934931706 L 55 437.7036417778991 L 56 438.31711527342657 L 57 438.92868176641485 L 58 439.53830914366205 L 59 440.14596539378874 L 60 440.75161860891893 L 61 441.3552369863554 L 62 441.9567888302499 L 63 442.55624255326705 L 64 443.1535666782436 L 65 443.74872983984073 L 66 444.3417007861913 L 67 444.93244838054096 L 68 445.52094160288283 L 69 446.10714955158664 L 70 446.6910414450213 L 71 447.2725866231711 L 72 447.8517545492458 L 73 448.428514811284 L 74 449.0028371237503 L 75 449.57469132912524 L 76 450.1440473994891 L 77 450.71087543809864 L 78 451.2751456809569 L 79 451.836828498376 L 80 452.39589439653344 L 81 452.9523140190201 L 82 453.5060581483824 L 83 454.0570977076561 L 84 454.60540376189334 L 85 455.1509475196818 L 86 455.69370033465674 L 87 456.23363370700514 L 88 456.7707192849621 L 89 457.3049288662998 L 90 457.8362343998082 L 91 458.36460798676796 L 92 458.8900218824158 L 93 459.4124484974009 L 94 459.93186039923376 L 95 460.44823031372675 L 96 460.9615311264264 L 97 461.47173588403666 L 98 461.97881779583474 L 99 462.4827502350778 L 100 462.9835067404008 L 101 463.48106101720634 L 102 463.97538693904505 L 103 464.4664585489879 L 104 464.9542500609888 L 105 465.43873586123874 L 106 465.91989050951094 L 107 466.39768874049645 L 108 466.872105465131 L 109 467.3431157719124 L 110 467.8106949282085 L 111 468.27481838155603 L 112 468.7354617609499 L 113 469.19260087812256 L 114 469.6462117288148 L 115 470.0962704940354 L 116 470.5427535413125 L 117 470.9856374259341 L 118 471.4248988921795 L 119 471.8605148745402 L 120 472.292462498931 L 121 472.72071908389154 L 122 473.1452621417767 L 123 473.5660693799379 L 124 473.98311870189355 L 125 474.39638820848916 L 126 474.8058561990474 L 127 475.2115011725078 L 128 475.61330182855517 L 129 476.0112370687388 L 130 476.4052859975798 L 131 476.7954279236686 L 132 477.1816423607513 L 133 477.5639090288055 L 134 477.9422078551051 L 135 478.3165189752744 L 136 478.68682273433114 L 137 479.05309968771854 L 138 479.4153306023265 L 139 479.77349645750115 L 140 480.12757844604414 L 141 480.4775579751997 L 142 480.8234166676313 L 143 481.1651363623865 L 144 481.5026991158504 L 145 481.83608720268836 L 146 482.16528311677615 L 147 482.4902695721196 L 148 482.81102950376203 L 149 483.12754606868066 L 150 483.4398026466706 L 151 483.74778284121805 L 152 484.0514704803607 L 153 484.35084961753756 L 154 484.6459045324258 L 155 484.9366197317664 L 156 485.2229799501778 L 157 485.5049701509573 L 158 485.7825755268709 L 159 486.0557815009304 L 160 486.3245737271592 L 161 486.5889380913455 L 162 486.84886071178335 L 163 487.10432794000167 L 164 487.35532636148093 L 165 487.6018427963576 L 166 487.84386430011585 L 167 488.0813781642678 L 168 488.31437191702054 L 169 488.54283332393095 L 170 488.76675038854836 L 171 488.98611135304435 L 172 489.2009046988302 L 173 489.41111914716146 L 174 489.6167436597308 L 175 489.81776743924695 L 176 490.0141799300021 L 177 490.20597081842607 L 178 490.3931300336278 L 179 490.5756477479242 L 180 490.7535143773563 L 181 490.9267205821923 L 182 491.09525726741816 L 183 491.25911558321525 L 184 491.41828692542475 L 185 491.5727629359999 L 186 491.7225355034442 L 187 491.8675967632382 L 188 492.00793909825177 L 189 492.14355513914444 L 190 492.27443776475207 L 191 492.4005801024612 L 192 492.52197552856956 L 193 492.63861766863397 L 194 492.7505003978052 L 195 492.8576178411494 L 196 492.9599643739567 L 197 493.05753462203666 L 198 493.1503234620001 L 199 493.2383260215285 L 200 493.3215376796298 L 201 493.39995406688075 L 202 493.4735710656568 L 203 493.5423848103479 L 204 493.60639168756177 L 205 493.6655883363134 L 206 493.7199716482018 L 207 493.769538767573 L 208 493.81428709167005 L 209 493.85421427076983 L 210 493.88931820830624 L 211 493.9195970609804 L 212 493.94504923885734 L 213 493.96567340544976 L 214 493.9814684777878 L 215 493.99243362647627 L 216 493.9985682757379 L 217 493.9998721034439 L 218 493.99634504113055 L 219 493.98798727400305 L 220 493.97479924092556 L 221 493.9567816343984 L 222 493.93393540052153 L 223 493.906261738945 L 224 493.8737621028056 L 225 493.83643819865114 L 226 493.79429198635034 L 227 493.74732567899025 L 228 493.69554174275964 L 229 493.63894289681997 L 230 493.57753211316236 L 231 493.5113126164515 L 232 493.4402878838564 L 233 493.3644616448679 L 234 493.2838378811025 L 235 493.1984208260937 L 236 493.10821496506946 L 237 493.0132250347168 L 238 492.91345602293285 L 239 492.8089131685632 L 240 492.69960196112675 L 241 492.58552814052734 L 242 492.46669769675236 L 243 492.3431168695585 L 244 492.21479214814366 L 245 492.08173027080653 L 246 491.9439382245926 L 247 491.8014232449275 L 248 491.65419281523657 L 249 491.50225466655263 L 250 491.3456167771094 L 251 491.1842873719227 L 252 491.018274922359 L 253 490.84758814569 L 254 490.67223600463507 L 255 490.4922277068909 L 256 490.3075727046476 L 257 490.11828069409273 L 258 489.92436161490184 L 259 489.7258256497168 L 260 489.52268322361084 L 261 489.3149450035415 L 262 489.1026218977901 L 263 488.88572505538923 L 264 488.66426586553723 L 265 488.43825595700025 L 266 488.20770719750135 L 267 487.9726316930976 L 268 487.73304178754427 L 269 487.4889500616468 L 270 487.2403693325999 L 271 486.9873126533148 L 272 486.72979331173383 L 273 486.46782483013243 L 274 486.2014209644093 L 275 485.930595703364 L 276 485.6553632679627 L 277 485.3757381105909 L 278 485.09173491429476 L 279 484.80336859201043 L 280 484.51065428578056 L 281 484.2136073659593 L 282 483.9122434304054 L 283 483.60657830366284 L 284 483.2966280361301 L 285 482.9824089032174 L 286 482.6639374044919 L 287 482.34123026281145 L 288 482.01430442344656 L 289 481.68317705319026 L 290 481.34786553945713 L 291 481.0083874893699 L 292 480.6647607288351 L 293 480.31700330160714 L 294 479.9651334683405 L 295 479.6091697056312 L 296 479.24913070504635 L 297 478.88503537214285 L 298 478.5169028254745 L 299 478.1447523955884 L 300 477.7686036240093 L 301 477.3884762622142 L 302 477.00439027059474 L 303 476.6163658174092 L 304 476.2244232777234 L 305 475.82858323234115 L 306 475.42886646672304 L 307 475.02529396989536 L 308 474.61788693334785 L 309 474.206666749921 L 310 473.79165501268267 L 311 473.3728735137942 L 312 472.9503442433662 L 313 472.5240893883039 L 314 472.09413133114174 L 315 471.66049264886874 L 316 471.2231961117424 L 317 470.78226468209334 L 318 470.3377215131194 L 319 469.88958994766995 L 320 469.4378935170202 L 321 468.9826559396355 L 322 468.5239011199259 L 323 468.0616531469909 L 324 467.59593629335484 L 325 467.1267750136918 L 326 466.65419394354194 L 327 466.1782178980178 L 328 465.6988718705012 L 329 465.2161810313307 L 330 464.7301707264803 L 331 464.2408664762282 L 332 463.74829397381677 L 333 463.2524790841037 L 334 462.7534478422033 L 335 462.25122645212 L 336 461.74584128537197 L 337 461.23731887960645 L 338 460.72568593720644 L 339 460.21096932388843 L 340 459.69319606729147 L 341 459.17239335555837 L 342 458.6485885359079 L 343 458.12180911319865 L 344 457.59208274848487 L 345 457.059437257564 L 346 456.5239006095161 L 347 455.98550092523516 L 348 455.4442664759524 L 349 454.9002256817519 L 350 454.35340711007825 L 351 453.80383947423627 L 352 453.2515516318837 L 353 452.6965725835152 L 354 452.1389314709405 L 355 451.57865757575337 L 356 451.0157803177943 L 357 450.4503292536058 L 358 449.8823340748802 L 359 449.3118246069008 L 360 448.73883080697544 L 361 448.1633827628637 L 362 447.58551069119676 L 363 447.0052449358911 L 364 446.4226159665547 L 365 445.83765437688743 L 366 445.25039088307443 L 367 444.6608563221733 L 368 444.0690816504947 L 369 443.475097941977 L 370 442.8789363865545 L 371 442.2806282885199 L 372 441.68020506487983 L 373 441.07769824370615 L 374 440.47313946247965 L 375 439.86656046642895 L 376 439.25799310686386 L 377 438.64746933950244 L 378 438.0350212227934 L 379 437.4206809162324 L 380 436.8044806786737 L 381 436.1864528666359 L 382 435.566629932603 L 383 434.94504442332067 L 384 434.3217289780868 L 385 433.69671632703773 L 386 433.07003928942976 L 387 432.4417307719157 L 388 431.8118237668168 L 389 431.18035135039077 L 390 430.5473466810944 L 391 429.91284299784274 L 392 429.2768736182639 L 393 428.6394719369491 L 394 428.0006714236995 L 395 427.3605056217684 L 396 426.71900814610024 L 397 426.07621268156527 L 398 425.4321529811907 L 399 424.7868628643886 L 400 424.1403762151798 L 401 423.49272698041483 L 402 422.8439491679911 L 403 422.19407684506757 L 404 421.5431441362756 L 405 420.89118522192706 L 406 420.2382343362197 L 407 419.58432576543936 L 408 418.92949384615986 L 409 418.27377296343957 L 410 417.6171975490163 L 411 416.9598020794989 L 412 416.3016210745574 L 413 415.6426890951098 L 414 414.9830407415078 L 415 414.32271065171955 L 416 413.6617334995112 L 417 413.00014399262574 L 418 412.3379768709609 L 419 411.6752669047449 L 420 411.01204889271037 L 421 410.3483576602675 L 422 409.68422805767494 L 423 409.01969495821027 L 424 408.3547932563385 L 425 407.68955786587975 L 426 407.0240237181763 L 427 406.3582257602579 L 428 405.6921989530069 L 429 405.0259782693225 L 430 404.3595986922844 L 431 403.6930952133157 L 432 403.0265028303455 L 433 402.35985654597124 L 434 401.6931913656208 L 435 401.02654229571414 L 436 400.3599443418254 L 437 399.69343250684443 L 438 399.02704178913933 L 439 398.36080718071804 L 440 397.6947636653914 L 441 397.02894621693605 L 442 396.36338979725775 L 443 395.6981293545558 L 444 395.0331998214878 L 445 394.36863611333547 L 446 393.704473126171 L 447 393.0407457350249 L 448 392.3774887920547 L 449 391.7147371247147 L 450 391.05252553392734 L 451 390.3908887922558 L 452 389.72986164207805 L 453 389.06947879376264 L 454 388.40977492384593 L 455 387.7507846732113 L 456 387.0925426452701 L 457 386.43508340414485 L 458 385.778441472854 L 459 385.12265133149936 L 460 384.46774741545534 L 461 383.81376411356104 L 462 383.1607357663142 L 463 382.5086966640682 L 464 381.85768104523146 L 465 381.2077230944695 L 466 380.55885694090983 L 467 379.91111665635026 L 468 379.2645362534692 L 469 378.61914968404017 L 470 377.97499083714877 L 471 377.332093537413 L 472 376.69049154320766 L 473 376.0502185448911 L 474 375.41130816303667 L 475 374.7737939466668 L 476 374.1377093714919 L 477 373.50308783815217 L 478 372.86996267046374 L 479 372.2383671136691 L 480 371.60833433269124 L 481 370.9798974103922 L 482 370.35308934583577 L 483 369.72794305255496 L 484 369.1044913568236 L 485 368.4827669959324 L 486 367.86280261647056 L 487 367.2446307726107 L 488 366.6282839244001 L 489 366.0137944360559 L 490 365.4011945742657 L 491 364.7905165064933 L 492 364.18179229928967 L 493 363.575053916609 L 494 362.9703332181303 L 495 362.3676619575845 L 496 361.7670717810872 L 497 361.1685942254766 L 498 360.5722607166578 L 499 359.9781025679526 L 500 359.38615097845513 L 501 358.79643703139357 L 502 358.2089916924983 L 503 357.6238458083754 L 504 357.04103010488734 L 505 356.46057518553926 L 506 355.88251152987226 L 507 355.3068694918627 L 508 354.7336792983284 L 509 354.1629710473415 L 510 353.59477470664797 L 511 353.0291201120939 L 512 352.46603696605905 L 513 351.905554835897 L 514 351.34770315238273 L 515 350.792511208167 L 516 350.2400081562385 L 517 349.69022300839265 L 518 349.1431846337087 L 519 348.59892175703317 L 520 348.0574629574722 L 521 347.5188366668904 L 522 346.9830711684181 L 523 346.45019459496615 L 524 345.9202349277486 L 525 345.39321999481365 L 526 344.8691774695821 L 527 344.34813486939447 L 528 343.8301195540659 L 529 343.31515872444965 L 530 342.8032794210086 L 531 342.2945085223955 L 532 341.7888727440417 L 533 341.28639863675403 L 534 340.7871125853207 L 535 340.2910408071261 L 536 339.79820935077385 L 537 339.308644094719 L 538 338.8223707459095 L 539 338.3394148384358 L 540 337.85980173219053 L 541 337.3835566115366 L 542 336.9107044839849 L 543 336.44127017888104 L 544 335.9752783461017 L 545 335.5127534547601 L 546 335.0537197919214 L 547 334.5982014613271 L 548 334.1462223821296 L 549 333.6978062876361 L 550 333.2529767240622 L 551 332.81175704929586 L 552 332.3741704316706 L 553 331.9402398487491 L 554 331.5099880861165 L 555 331.0834377361841 L 556 330.6606111970028 L 557 330.24153067108745 L 558 329.82621816425024 L 559 329.4146954844461 L 560 329.00698424062676 L 561 328.6031058416066 L 562 328.20308149493803 L 563 327.80693220579866 L 564 327.4146787758872 L 565 327.02634180233224 L 566 326.64194167661 L 567 326.2614985834738 L 568 325.88503249989435 L 569 325.51256319401045 L 570 325.1441102240912 L 571 324.7796929375088 L 572 324.419330469723 L 573 324.0630417432756 L 574 323.71084546679776 L 575 323.36276013402676 L 576 323.0188040228354 L 577 322.67899519427215 L 578 322.3433514916127 L 579 322.01189053942284 L 580 321.68462974263355 L 581 321.36158628562634 L 582 321.0427771313316 L 583 320.7282190203373 L 584 320.41792847001034 L 585 320.11192177362904 L 586 319.8102149995276 L 587 319.51282399025257 L 588 319.2197643617305 L 589 318.93105150244844 L 590 318.6467005726456 L 591 318.36672650351744 L 592 318.09114399643147 L 593 317.8199675221555 L 594 317.5532113200976 L 595 317.29088939755843 L 596 317.0330155289959 L 597 316.7796032553016 L 598 316.5306658830899 L 599 316.2862164839993 L 600 316.04626789400595 L 601 315.8108327127496 L 602 315.5799233028721 L 603 315.3535517893681 L 604 315.1317300589487 L 605 314.91446975941665 L 606 314.70178229905554 L 607 314.49367884603 L 608 314.29017032779973 L 609 314.09126743054566 L 610 313.89698059860854 L 611 313.7073200339408 L 612 313.5222956955707 L 613 313.3419172990795 L 614 313.16619431609115 L 615 312.9951359737751 L 616 312.8287512543617 L 617 312.6670488946703 L 618 312.5100373856511 L 619 312.35772497193864 L 620 312.2101196514193 L 621 312.0672291748111 L 622 311.9290610452568 L 623 311.79562251793004 L 624 311.666920599654 L 625 311.54296204853404 L 626 311.4237533736022 L 627 311.30930083447595 L 628 311.1996104410291 L 629 311.09468795307646 L 630 310.99453888007145 L 631 310.89916848081646 L 632 310.808581763187 L 633 310.7227834838689 L 634 310.64177814810796 L 635 310.56557000947384 L 636 310.4941630696368 L 637 310.427561078157 L 638 310.36576753228826 L 639 310.30878567679406 L 640 310.25661850377725 L 641 310.2092687525228 L 642 310.16673890935425 L 643 310.12903120750286 L 644 310.0961476269906 L 645 310.0680898945259 L 646 310.0448594834132 L 647 310.0264576134755 L 648 310.01288525099034 L 649 310.0041431086391 L 650 310.0002316454694 L 651 310.0011510668712 L 652 310.00690132456594 L 653 310.017482116609 L 654 310.0328928874057 L 655 310.05313282774034 L 656 310.07820087481883 L 657 310.10809571232426 L 658 310.1428157704863 L 659 310.1823592261636 L 660 310.22672400293914 L 661 310.27590777122975 L 662 310.3299079484083 L 663 310.3887216989389 L 664 310.45234593452665 L 665 310.5207773142789 L 666 310.59401224488124 L 667 310.67204688078596 L 668 310.75487712441407 L 669 310.84249862637034 L 670 310.934906785672 L 671 311.03209674998993 L 672 311.13406341590365 L 673 311.2408014291693 L 674 311.3523051850009 L 675 311.4685688283643 L 676 311.5895862542851 L 677 311.71535110816876 L 678 311.8458567861347 L 679 311.9810964353627 L 680 312.12106295445295 L 681 312.2657489937991 L 682 312.41514695597357 L 683 312.5692489961274 L 684 312.7280470224012 L 685 312.8915326963509 L 686 313.0596974333851 L 687 313.23253240321594 L 688 313.41002853032285 L 689 313.59217649442917 L 690 313.77896673099127 L 691 313.97038943170105 L 692 314.16643454500104 L 693 314.3670917766118 L 694 314.5723505900728 L 695 314.7822002072958 L 696 314.9966296091303 L 697 315.21562753594276 L 698 315.4391824882074 L 699 315.6672827271102 L 700 315.89991627516525 L 701 316.1370709168438 L 702 316.3787341992156 L 703 316.62489343260285 L 704 316.87553569124634 L 705 317.1306478139845 L 706 317.39021640494434 L 707 317.6542278342447 L 708 317.9226682387122 L 709 318.19552352260916 L 710 318.4727793583736 L 711 318.75442118737163 L 712 319.04043422066206 L 713 319.33080343977286 L 714 319.62551359748977 L 715 319.92454921865686 L 716 320.2278946009894 L 717 320.53553381589796 L 718 320.84745070932524 L 719 321.163628902594 L 720 321.48405179326727 L 721 321.80870255602014 L 722 322.1375641435231 L 723 322.47061928733734 L 724 322.80785049882155 L 725 323.14924007005 L 726 323.49477007474275 L 727 323.84442236920654 L 728 324.1981785932878 L 729 324.55602017133674 L 730 324.91792831318253 L 731 325.2838840151202 L 732 325.6538680609083 L 733 326.0278610227782 L 734 326.4058432624541 L 735 326.7877949321841 L 736 327.1736959757826 L 737 327.5635261296835 L 738 327.95726492400394 L 739 328.35489168361937 L 740 328.75638552924914 L 741 329.1617253785531 L 742 329.5708899472381 L 743 329.98385775017624 L 744 330.4006071025325 L 745 330.8211161209039 L 746 331.2453627244681 L 747 331.6733246361433 L 748 332.10497938375784 L 749 332.54030430122987 L 750 332.9792765297582 L 751 333.421873019022 L 752 333.8680705283917 L 753 334.3178456281488 L 754 334.7711747007166 L 755 335.2280339419001 L 756 335.6883993621361 L 757 336.1522467877528 L 758 336.6195518622392 L 759 337.0902900475239 L 760 337.56443662526397 L 761 338.0419666981425 L 762 338.52285519117606 L 763 339.0070768530315 L 764 339.4946062573518 L 765 339.9854178040913 L 766 340.47948572085966 L 767 340.9767840642756 L 768 341.4772867213288 L 769 341.9809674107515 L 770 342.48779968439777 L 771 342.9977569286333 L 772 343.5108123657321 L 773 344.0269390552828 L 774 344.5461098956037 L 775 345.06829762516503 L 776 345.5934748240213 L 777 346.12161391525046 L 778 346.65268716640253 L 779 347.18666669095535 L 780 347.72352444977906 L 781 348.26323225260853 L 782 348.8057617595236 L 783 349.3510844824369 L 784 349.8991717865903 L 785 350.4499948920579 L 786 351.0035248752579 L 787 351.5597326704707 L 788 352.1185890713657 L 789 352.68006473253473 L 790 353.24413017103257 L 791 353.81075576792585 L 792 354.3799117698477 L 793 354.95156829056043 L 794 355.52569531252465 L 795 356.10226268847566 L 796 356.68124014300633 L 797 357.262597274157 L 798 357.8463035550115 L 799 358.43232833530095 L 800 359.0206408430121 L 801 359.611210186004 L 802 360.20400535362984 L 803 360.79899521836523 L 804 361.39614853744285 L 805 361.9954339544929 L 806 362.59682000118977 L 807 363.20027509890406 L 808 363.8057675603613 L 809 364.4132655913054 L 810 365.02273729216853 L 811 365.63415065974556 L 812 366.2474735888754 L 813 366.8626738741259 L 814 367.4797192114859 L 815 368.09857720006056 L 816 368.71921534377356 L 817 369.34160105307285 L 818 369.9657016466422 L 819 370.5914843531173 L 820 371.21891631280647 L 821 371.8479645794162 L 822 372.47859612178104 L 823 373.11077782559823 L 824 373.7444764951662 L 825 374.37965885512835 L 826 375.0162915522193 L 827 375.6543411570173 L 828 376.29377416569884 L 829 376.93455700179834 L 830 377.57665601797123 L 831 378.2200374977604 L 832 378.86466765736725 L 833 379.51051264742483 L 834 380.1575385547763 L 835 380.8057114042547 L 836 381.4549971604677 L 837 382.1053617295844 L 838 382.75677096112577 L 839 383.40919064975765 L 840 384.06258653708744 L 841 384.7169243134621 L 842 385.3721696197705 L 843 386.0282880492474 L 844 386.6852451492799 L 845 387.3430064232169 L 846 388.0015373321801 L 847 388.6608032968781 L 848 389.32076969942176 L 849 389.98140188514225 L 850 390.6426651644104 L 851 391.3045248144589 L 852 391.9669460812046 L 853 392.62989418107446 L 854 393.29333430283134 L 855 393.95723160940236 L 856 394.62155123970757 L 857 395.2862583104914 L 858 395.9513179181536 L 859 396.6166951405823 L 860 397.28235503898793 L 861 397.9482626597374 L 862 398.61438303619 L 863 399.28068119053324 L 864 399.94712213561957 L 865 400.6136708768033 L 866 401.28029241377885 L 867 401.94695174241764 L 868 402.6136138566071 L 869 403.28024375008806 L 870 403.9468064182934 L 871 404.6132668601862 L 872 405.27959008009685 L 873 405.9457410895618 L 874 406.61168490915986 L 875 407.2773865703497 L 876 407.9428111173051 L 877 408.60792360875166 L 878 409.2726891198004 L 879 409.9370727437827 L 880 410.6010395940823 L 881 411.26455480596786 L 882 411.9275835384233 L 883 412.59009097597766 L 884 413.25204233053284 L 885 413.9134028431906 L 886 414.57413778607787 L 887 415.23421246416956 L 888 415.8935922171115 L 889 416.5522424210395 L 890 417.210128490398 L 891 417.86721587975563 L 892 418.52347008562003 L 893 419.1788566482486 L 894 419.8333411534588 L 895 420.4868892344346 L 896 421.13946657353176 L 897 421.791038904079 L 898 422.44157201217814 L 899 423.09103173850025 L 900 423.7393839800792 L 901 424.3865946921028 L 902 425.03262988970016 L 903 425.67745564972654 L 904 426.3210381125442 L 905 426.96334348380094 L 906 427.60433803620396 L 907 428.24398811129157 L 908 428.8822601211999 L 909 429.5191205504273 L 910 430.15453595759357 L 911 430.78847297719636 L 912 431.4208983213632 L 913 432.05177878159907 L 914 432.6810812305306 L 915 433.3087726236452 L 916 433.9348200010268 L 917 434.55919048908567 L 918 435.1818513022856 L 919 435.8027697448645 L 920 436.4219132125522 L 921 437.03924919428164 L 922 437.65474527389665 L 923 438.26836913185355 L 924 438.8800885469189 L 925 439.4898713978608 L 926 440.09768566513594 L 927 440.70349943257105 L 928 441.3072808890381 L 929 441.90899833012577 L 930 442.5086201598032 L 931 443.10611489207986 L 932 443.7014511526583 L 933 444.2945976805822 L 934 444.8855233298773 L 935 445.47419707118723 L 936 446.0605879934026 L 937 446.64466530528443 L 938 447.2263983370807 L 939 447.80575654213715 L 940 448.3827094985009 L 941 448.95722691051805 L 942 449.5292786104246 L 943 450.09883455993054 L 944 450.66586485179687 L 945 451.2303397114064 L 946 451.792229498327 L 947 452.351504707868 L 948 452.9081359726297 L 949 453.46209406404495 L 950 454.01334989391466 L 951 454.56187451593445 L 952 455.1076391272153 L 953 455.65061506979526 L 954 456.190773832145 L 955 456.7280870506646 L 956 457.26252651117267 L 957 457.79406415038846 L 958 458.3226720574047 L 959 458.8483224751542 L 960 459.3709878018661 L 961 459.89064059251655 L 962 460.4072535602687 L 963 460.92079957790645 L 964 461.4312516792581 L 965 461.93858306061304 L 966 462.4427670821286 L 967 462.9437772692294 L 968 463.4415873139972 L 969 463.93617107655234 L 970 464.4275025864267 L 971 464.9155560439268 L 972 465.40030582148904 L 973 465.88172646502517 L 974 466.359792695259 L 975 466.8344794090536 L 976 467.3057616807297 L 977 467.7736147633744 L 978 468.2380140901406 L 979 468.6989352755371 L 980 469.15635411670905 L 981 469.61024659470877 L 982 470.060588875757 L 983 470.50735731249443 L 984 470.9505284452234 L 985 471.39007900313993 L 986 471.82598590555517 L 987 472.2582262631081 L 988 472.6867773789668 L 989 473.11161675002046 L 990 473.53272206806116 L 991 473.95007122095524 L 992 474.3636422938041 L 993 474.77341357009544 L 994 475.17936353284296 L 995 475.58147086571694 L 996 475.97971445416295 L 997 476.3740733865108 L 998 476.7645269550728 L 999 477.1510546572308 L 1000 477.5336361965128 L 1001 477.912251483659 L 1002 478.2868806376764 L 1003 478.65750398688283 L 1004 479.02410206994 L 1005 479.38665563687516 L 1006 479.74514565009235 L 1007 480.09955328537154 L 1008 480.4498599328574 L 1009 480.79604719803655 L 1010 481.1380969027031 L 1011 481.47599108591373 L 1012 481.80971200493013 L 1013 482.13924213615144 L 1014 482.4645641760336 L 1015 482.7856610419987 L 1016 483.10251587333147 L 1017 483.4151120320648 L 1018 483.72343310385355 L 1019 484.0274628988361 L 1020 484.32718545248485 L 1021 484.6225850264443 L 1022 484.9136461093575 L 1023 485.20035341768056 L 1024 485.48269189648533 L 1025 485.76064672024955 L 1026 486.03420329363587 L 1027 486.3033472522576 L 1028 486.56806446343376 L 1029 486.8283410269303 L 1030 487.0841632756909 L 1031 487.3355177765538 L 1032 487.5823913309578 L 1033 487.82477097563503 L 1034 488.0626439832916 L 1035 488.29599786327594 L 1036 488.524820362235 L 1037 488.7490994647571 L 1038 488.96882339400327 L 1039 489.1839806123257 L 1040 489.39455982187303 L 1041 489.6005499651844 L 1042 489.80194022576944 L 1043 489.9987200286765 L 1044 490.19087904104776 L 1045 490.37840717266226 L 1046 490.5612945764651 L 1047 490.73953164908505 L 1048 490.9131090313384 L 1049 491.08201760872083 L 1050 491.24624851188554 L 1051 491.4057931171094 L 1052 491.56064304674544 L 1053 491.71079016966314 L 1054 491.85622660167496 L 1055 491.9969447059507 L 1056 492.1329370934182 L 1057 492.26419662315163 L 1058 492.3907164027463 L 1059 492.51248978868057 L 1060 492.6295103866647 L 1061 492.74177205197674 L 1062 492.849268889785 L 1063 492.9519952554577 L 1064 493.0499457548593 L 1065 493.14311524463403 L 1066 493.2314988324754 L 1067 493.31509187738357 L 1068 493.39388998990887 L 1069 493.4678890323824 L 1070 493.5370851191331 L 1071 493.60147461669203 L 1072 493.6610541439829 L 1073 493.7158205724998 L 1074 493.7657710264714 L 1075 493.8109028830121 L 1076 493.85121377225937 L 1077 493.8867015774987 L 1078 493.91736443527435 L 1079 493.9432007354875 L 1080 493.9642091214805 L 1081 493.98038849010834 L 1082 493.99173799179647 L 1083 493.99825703058536 L 1084 493.9999452641621 L 1085 493.9968026038777 L 1086 493.9888292147527 L 1087 493.97602551546765 L 1088 493.95839217834157 L 1089 493.9359301292965 L 1090 493.908640547809 L 1091 493.8765248668481 L 1092 493.83958477280004 L 1093 493.7978222053799 L 1094 493.7512393575294 L 1095 493.6998386753022 L 1096 493.6436228577352 L 1097 493.5825948567065 L 1098 493.5167578767813 L 1099 493.4461153750426 L 1100 493.37067106091035 L 1101 493.2904288959464 L 1102 493.20539309364653 L 1103 493.1155681192192 L 1104 493.0209586893511 L 1105 492.9215697719595 L 1106 492.8174065859314 L 1107 492.7084746008492 L 1108 492.594779536704 L 1109 492.4763273635948 L 1110 492.3531243014153 L 1111 492.22517681952706 L 1112 492.0924916364201 L 1113 491.9550757193598 L 1114 491.8129362840212 L 1115 491.6660807941101 L 1116 491.51451696097115 L 1117 491.35825274318296 L 1118 491.19729634614 L 1119 491.03165622162203 L 1120 490.86134106735 L 1121 490.6863598265297 L 1122 490.50672168738186 L 1123 490.3224360826597 L 1124 490.13351268915363 L 1125 489.9399614271834 L 1126 489.7417924600768 L 1127 489.5390161936361 L 1128 489.33164327559183 L 1129 489.1196845950435 L 1130 488.90315128188786 L 1131 488.68205470623434 L 1132 488.45640647780823 L 1133 488.2262184453409 L 1134 487.99150269594793 L 1135 487.75227155449375 L 1136 487.5085375829452 L 1137 487.26031357971135 L 1138 487.0076125789721 L 1139 486.7504478499929 L 1140 486.4888328964287 L 1141 486.2227814556145 L 1142 485.95230749784423 L 1143 485.6774252256371 L 1144 485.3981490729915 L 1145 485.1144937046277 L 1146 484.8264740152174 L 1147 484.53410512860165 L 1148 484.23740239699674 L 1149 483.936381400188 L 1150 483.63105794471187 L 1151 483.3214480630259 L 1152 483.00756801266664 L 1153 482.6894342753961 L 1154 482.36706355633635 L 1155 482.0404727830924 L 1156 481.7096791048632 L 1157 481.37469989154107 L 1158 481.0355527327998 L 1159 480.69225543717096 L 1160 480.3448260311087 L 1161 479.99328275804334 L 1162 479.63764407742315 L 1163 479.27792866374534 L 1164 478.9141554055754 L 1165 478.54634340455505 L 1166 478.17451197439954 L 1167 477.798680639883 L 1168 477.41886913581413 L 1169 477.03509740599867 L 1170 476.64738560219325 L 1171 476.25575408304655 L 1172 475.86022341303067 L 1173 475.4608143613611 L 1174 475.0575479009061 L 1175 474.6504452070855 L 1176 474.23952765675875 L 1177 473.8248168271027 L 1178 473.406334494478 L 1179 472.98410263328617 L 1180 472.5581434148154 L 1181 472.1284792060766 L 1182 471.69513256862865 L 1183 471.258126257394 L 1184 470.8174832194634 L 1185 470.3732265928915 L 1186 469.9253797054814 L 1187 469.4739660735598 L 1188 469.01900940074245 L 1189 468.560533576689 L 1190 468.0985626758493 L 1191 467.63312095619847 L 1192 467.1642328579634 L 1193 466.69192300233954 L 1194 466.2162161901981 L 1195 465.73713740078347 L 1196 465.25471179040164 L 1197 464.7689646910994 L 1198 464.27992160933434 L 1199 463.78760822463477 L 1200 463.29205038825216 L 1201 462.79327412180305 L 1202 462.29130561590307 L 1203 461.78617122879166 L 1204 461.27789748494774 L 1205 460.766511073697 L 1206 460.25203884781047 L 1207 459.7345078220948 L 1208 459.2139451719733 L 1209 458.69037823205895 L 1210 458.16383449471937 L 1211 457.6343416086332 L 1212 457.1019273773379 L 1213 456.5666197577701 L 1214 456.0284468587975 L 1215 455.48743693974313 L 1216 454.9436184089009 L 1217 454.39701982204423 L 1218 453.8476698809269 L 1219 453.2955974317751 L 1220 452.7408314637739 L 1221 452.1834011075438 L 1222 451.6233356336119 L 1223 451.06066445087436 L 1224 450.4954171050531 L 1225 449.9276232771431 L 1226 449.35731278185466 L 1227 448.7845155660476 L 1228 448.20926170715916 L 1229 447.63158141162376 L 1230 447.05150501328774 L 1231 446.469062971816 L 1232 445.88428587109274 L 1233 445.297204417616 L 1234 444.7078494388842 L 1235 444.1162518817782 L 1236 443.5224428109362 L 1237 442.9264534071224 L 1238 442.32831496558964 L 1239 441.72805889443623 L 1240 441.12571671295643 L 1241 440.52132004998634 L 1242 439.9149006422416 L 1243 439.30649033265206 L 1244 438.6961210686891 L 1245 438.0838249006884 L 1246 437.4696339801671 L 1247 436.85358055813504 L 1248 436.2356969834016 L 1249 435.6160157008769 L 1250 434.99456924986873 L 1251 434.3713902623728 L 1252 433.7465114613603 L 1253 433.1199656590588 L 1254 432.49178575523024 L 1255 431.86200473544244 L 1256 431.2306556693374 L 1257 430.59777170889504 L 1258 429.9633860866918 L 1259 429.32753211415667 L 1260 428.6902431798208 L 1261 428.051552747565 L 1262 427.41149435486204 L 1263 426.77010161101674 L 1264 426.1274081953997 L 1265 425.48344785567963 L 1266 424.83825440605096 L 1267 424.19186172545886 L 1268 423.54430375581944 L 1269 422.8956145002379 L 1270 422.245828021223 L 1271 421.5949784388983 L 1272 420.9430999292111 L 1273 420.2902267221369 L 1274 419.63639309988275 L 1275 418.98163339508665 L 1276 418.32598198901536 L 1277 417.66947330975836 L 1278 417.0121418304204 L 1279 416.3540220673109 L 1280 415.6951485781327 L 1281 415.0355559601659 L 1282 414.375278848452 L 1283 413.71435191397507 L 1284 413.05280986184164 L 1285 412.39068742945733 L 1286 411.7280193847037 L 1287 411.06484052411224 L 1288 410.40118567103696 L 1289 409.73708967382674 L 1290 409.07258740399425 L 1291 408.4077137543857 L 1292 407.7425036373482 L 1293 407.07699198289697 L 1294 406.4112137368806 L 1295 405.7452038591464 L 1296 405.07899732170443 L 1297 404.4126291068919 L 1298 403.7461342055351 L 1299 403.0795476151127 L 1300 402.412904337918 L 1301 401.7462393792208 L 1302 401.0795877454298 L 1303 400.41298444225356 L 1304 399.7464644728629 L 1305 399.0800628360527 L 1306 398.4138145244048 L 1307 397.7477545224493 L 1308 397.0819178048286 L 1309 396.4163393344601 L 1310 395.7510540607013 L 1311 395.08609691751354 L 1312 394.4215028216283 L 1313 393.75730667071343 L 1314 393.0935433415407 L 1315 392.430247688155 L 1316 391.7674545400433 L 1317 391.105198700306 L 1318 390.4435149438298 L 1319 389.78243801546165 L 1320 389.12200262818374 L 1321 388.4622434612912 L 1322 387.80319515857104 L 1323 387.1448923264831 L 1324 386.4873695323426 L 1325 385.8306613025051 L 1326 385.1748021205538 L 1327 384.5198264254882 L 1328 383.8657686099168 L 1329 383.21266301824994 L 1330 382.56054394489706 L 1331 381.9094456324657 L 1332 381.2594022699638 L 1333 380.61044799100387 L 1334 379.9626168720109 L 1335 379.31594293043315 L 1336 378.6704601229559 L 1337 378.02620234371807 L 1338 377.3832034225327 L 1339 376.74149712311055 L 1340 376.1011171412869 L 1341 375.46209710325314 L 1342 374.8244705637896 L 1343 374.1882710045046 L 1344 373.55353183207603 L 1345 372.9202863764976 L 1346 372.28856788932785 L 1347 371.6584095419449 L 1348 371.029844423804 L 1349 370.40290554070083 L 1350 369.7776258130375 L 1351 369.1540380740944 L 1352 368.5321750683058 L 1353 367.91206944954115 L 1354 367.2937537793897 L 1355 366.6772605254507 L 1356 366.06262205962923 L 1357 365.44987065643545 L 1358 364.8390384912909 L 1359 364.23015763883797 L 1360 363.6232600712562 L 1361 363.01837765658325 L 1362 362.4155421570421 L 1363 361.8147852273722 L 1364 361.2161384131681 L 1365 360.6196331492223 L 1366 360.0253007578758 L 1367 359.43317244737204 L 1368 358.84327931021875 L 1369 358.2556523215555 L 1370 357.67032233752667 L 1371 357.087320093662 L 1372 356.50667620326175 L 1373 355.9284211557898 L 1374 355.3525853152723 L 1375 354.77919891870386 L 1376 354.208292074459 L 1377 353.6398947607119 L 1378 353.0740368238615 L 1379 352.51074797696526 L 1380 351.95005779817797 L 1381 351.39199572919915 L 1382 350.8365910737269 L 1383 350.28387299591907 L 1384 349.73387051886243 L 1385 349.18661252304787 L 1386 348.64212774485435 L 1387 348.10044477503976 L 1388 347.5615920572401 L 1389 347.02559788647517 L 1390 346.49249040766335 L 1391 345.96229761414344 L 1392 345.43504734620524 L 1393 344.91076728962673 L 1394 344.3894849742212 L 1395 343.87122777239125 L 1396 343.3560228976913 L 1397 342.8438974033993 L 1398 342.3348781810953 L 1399 341.82899195924995 L 1400 341.32626530182074 L 1401 340.82672460685757 L 1402 340.3303961051159 L 1403 339.83730585867977 L 1404 339.3474797595932 L 1405 338.86094352850114 L 1406 338.3777227132979 L 1407 337.89784268778624 L 1408 337.42132865034495 L 1409 336.94820562260554 L 1410 336.4784984481388 L 1411 336.01223179114953 L 1412 335.549430135182 L 1413 335.090117781834 L 1414 334.63431884948136 L 1415 334.1820572720105 L 1416 333.73335679756264 L 1417 333.28824098728603 L 1418 332.8467332140995 L 1419 332.40885666146454 L 1420 331.9746343221682 L 1421 331.54408899711547 L 1422 331.1172432941329 L 1423 330.6941196267801 L 1424 330.274740213174 L 1425 329.8591270748216 L 1426 329.4473020354634 L 1427 329.0392867199284 L 1428 328.6351025529975 L 1429 328.2347707582791 L 1430 327.8383123570945 L 1431 327.4457481673742 L 1432 327.0570988025644 L 1433 326.672384670545 L 1434 326.2916259725577 L 1435 325.9148427021456 L 1436 325.54205464410296 L 1437 325.17328137343634 L 1438 324.808542254337 L 1439 324.4478564391636 L 1440 324.0912428674375 L 1441 323.73872026484685 L 1442 323.39030714226453 L 1443 323.04602179477536 L 1444 322.70588230071604 L 1445 322.3699065207253 L 1446 322.03811209680646 L 1447 321.71051645140057 L 1448 321.3871367864724 L 1449 321.06799008260634 L 1450 320.7530930981151 L 1451 320.44246236815957 L 1452 320.1361142038808 L 1453 319.8340646915437 L 1454 319.5363296916916 L 1455 319.2429248383141 L 1456 318.95386553802575 L 1457 318.6691669692574 L 1458 318.38884408145896 L 1459 318.1129115943143 L 1460 317.8413839969685 L 1461 317.5742755472671 L 1462 317.3116002710073 L 1463 317.0533719612014 L 1464 316.79960417735253 L 1465 316.55031024474295 L 1466 316.305503253734 L 1467 316.0651960590789 L 1468 315.82940127924763 L 1469 315.59813129576446 L 1470 315.37139825255775 L 1471 315.1492140553223 L 1472 314.93159037089407 L 1473 314.71853862663767 L 1474 314.5100700098464 L 1475 314.30619546715457 L 1476 314.1069257039628 L 1477 313.9122711838761 L 1478 313.7222421281539 L 1479 313.5368485151741 L 1480 313.35610007990823 L 1481 313.18000631341107 L 1482 313.0085764623216 L 1483 312.84181952837815 L 1484 312.679744267945 L 1485 312.52235919155316 L 1486 312.36967256345315 L 1487 312.22169240118126 L 1488 312.0784264751384 L 1489 311.93988230818195 L 1490 311.80606717523125 L 1491 311.67698810288505 L 1492 311.55265186905285 L 1493 311.4330650025987 L 1494 311.31823378299885 L 1495 311.20816424001157 L 1496 311.10286215336066 L 1497 311.0023330524322 L 1498 310.90658221598375 L 1499 310.81561467186754 L 1500 310.7294351967663 L 1501 310.6480483159425 L 1502 310.57145830300067 L 1503 310.49966917966293 L 1504 310.43268471555814 L 1505 310.3705084280235 L 1506 310.31314358192014 L 1507 310.2605931894617 L 1508 310.2128600100558 L 1509 310.16994655015986 L 1510 310.13185506314863 L 1511 310.0985875491966 L 1512 310.0701457551724 L 1513 310.04653117454745 L 1514 310.02774504731747 L 1515 310.0137883599373 L 1516 310.00466184526886 L 1517 310.0003659825433 L 1518 310.0009009973353 L 1519 310.00626686155124 L 1520 310.016463293431 L 1521 310.0314897575626 L 1522 310.0513454649101 L 1523 310.07602937285543 L 1524 310.1055401852527 L 1525 310.13987635249674 L 1526 310.179036071604 L 1527 310.2230172863076 L 1528 310.27181768716497 L 1529 310.3254347116795 L 1530 310.3838655444348 L 1531 310.4471071172426 L 1532 310.5151561093038 L 1533 310.58800894738323 L 1534 310.6656618059966 L 1535 310.7481106076121 L 1536 310.83535102286385 L 1537 310.9273784707798 L 1538 311.0241881190219 L 1539 311.12577488414007" stroke-linecap="round" stroke-linejoin="round" stroke-miterlimit="10" stroke-width="15"/></g></svg>